<svg width="100" height="100" viewBox="0 0 100 100" fill="none" xmlns="http://www.w3.org/2000/svg">
<circle cx="50" cy="50" r="47.5" stroke="white" stroke-width="5"/>
<path d="M72.5 22L72.7559 22.0127C74.0164 22.1408 75 23.2057 75 24.5V75.5C75 76.8807 73.8807 78 72.5 78H46.5C45.1193 78 44 76.8807 44 75.5C44 74.1193 45.1193 73 46.5 73H70V27H46.5C45.1193 27 44 25.8807 44 24.5C44 23.1193 45.1193 22 46.5 22H72.5Z" fill="white"/>
<path d="M43.7676 41.7676C44.7439 40.7913 46.3274 40.7913 47.3037 41.7676L53.9824 48.4473C54.1209 48.5388 54.2521 48.6457 54.374 48.7676C54.8711 49.2647 55.1135 49.919 55.1045 50.5704C55.1139 51.2222 54.8714 51.8767 54.374 52.3741C54.2522 52.4959 54.1208 52.602 53.9824 52.6934L47.3037 59.3741C46.3274 60.3504 44.7439 60.3504 43.7676 59.3741C42.7915 58.3978 42.7915 56.8152 43.7676 55.8389L46.6064 53.0001H27.5C26.1194 53.0001 25.0001 51.8807 25 50.5001C25 49.1193 26.1193 48.0001 27.5 48.0001H46.4648L43.7676 45.3028C42.7916 44.3265 42.7914 42.7439 43.7676 41.7676Z" fill="white"/>
</svg>
