<svg width="256" height="70" viewBox="0 0 256 70" fill="none" xmlns="http://www.w3.org/2000/svg">
<path d="M24.448 17.72L34.384 35H21.616L15.184 22.856H12.016V35H0.688V1.4H12.016V13.928H15.472L22.624 1.4H34.432L24.448 17.72ZM53.5484 35.768C49.9324 35.768 46.6844 35.016 43.8044 33.512C40.9244 32.008 38.6684 29.928 37.0364 27.272C35.4044 24.584 34.5884 21.56 34.5884 18.2C34.5884 14.84 35.4044 11.832 37.0364 9.176C38.6684 6.488 40.9244 4.392 43.8044 2.888C46.6844 1.384 49.9324 0.631999 53.5484 0.631999C57.1644 0.631999 60.4124 1.384 63.2924 2.888C66.1724 4.392 68.4284 6.488 70.0604 9.176C71.6924 11.832 72.5084 14.84 72.5084 18.2C72.5084 21.56 71.6924 24.584 70.0604 27.272C68.4284 29.928 66.1724 32.008 63.2924 33.512C60.4124 35.016 57.1644 35.768 53.5484 35.768ZM53.5484 26.6C54.9564 26.6 56.2204 26.264 57.3404 25.592C58.4924 24.888 59.4044 23.912 60.0764 22.664C60.7484 21.384 61.0844 19.896 61.0844 18.2C61.0844 16.504 60.7484 15.032 60.0764 13.784C59.4044 12.504 58.4924 11.528 57.3404 10.856C56.2204 10.152 54.9564 9.8 53.5484 9.8C52.1404 9.8 50.8604 10.152 49.7084 10.856C48.5884 11.528 47.6924 12.504 47.0204 13.784C46.3484 15.032 46.0124 16.504 46.0124 18.2C46.0124 19.896 46.3484 21.384 47.0204 22.664C47.6924 23.912 48.5884 24.888 49.7084 25.592C50.8604 26.264 52.1404 26.6 53.5484 26.6ZM91.7054 1.016C96.7614 1.016 100.697 2.184 103.513 4.52C106.329 6.856 107.737 10.168 107.737 14.456C107.737 18.552 106.473 21.736 103.945 24.008C101.449 26.28 97.8974 27.416 93.2894 27.416C91.2094 27.416 89.1294 27.112 87.0494 26.504V35H75.9134V15.704C75.9134 10.936 77.2414 7.304 79.8974 4.808C82.5534 2.28 86.4894 1.016 91.7054 1.016ZM91.3694 19.4C94.6974 19.4 96.3614 17.832 96.3614 14.696C96.3614 13.192 95.9774 12.04 95.2094 11.24C94.4414 10.408 93.3534 9.992 91.9454 9.992C90.4094 9.992 89.2094 10.488 88.3454 11.48C87.4814 12.472 87.0494 13.848 87.0494 15.608V18.488C88.3294 19.096 89.7694 19.4 91.3694 19.4ZM128.83 35.768C125.214 35.768 121.966 35.016 119.086 33.512C116.206 32.008 113.95 29.928 112.318 27.272C110.686 24.584 109.87 21.56 109.87 18.2C109.87 14.84 110.686 11.832 112.318 9.176C113.95 6.488 116.206 4.392 119.086 2.888C121.966 1.384 125.214 0.631999 128.83 0.631999C132.446 0.631999 135.694 1.384 138.574 2.888C141.454 4.392 143.71 6.488 145.342 9.176C146.974 11.832 147.79 14.84 147.79 18.2C147.79 21.56 146.974 24.584 145.342 27.272C143.71 29.928 141.454 32.008 138.574 33.512C135.694 35.016 132.446 35.768 128.83 35.768ZM128.83 26.6C130.238 26.6 131.502 26.264 132.622 25.592C133.774 24.888 134.686 23.912 135.358 22.664C136.03 21.384 136.366 19.896 136.366 18.2C136.366 16.504 136.03 15.032 135.358 13.784C134.686 12.504 133.774 11.528 132.622 10.856C131.502 10.152 130.238 9.8 128.83 9.8C127.422 9.8 126.142 10.152 124.99 10.856C123.87 11.528 122.974 12.504 122.302 13.784C121.63 15.032 121.294 16.504 121.294 18.2C121.294 19.896 121.63 21.384 122.302 22.664C122.974 23.912 123.87 24.888 124.99 25.592C126.142 26.264 127.422 26.6 128.83 26.6ZM181.932 1.4V35H170.796V24.248C168.556 24.92 166.524 25.256 164.7 25.256C159.772 25.256 156.012 24.088 153.42 21.752C150.86 19.416 149.58 16.008 149.58 11.528V1.4H160.716V10.28C160.716 12.328 161.164 13.848 162.06 14.84C162.956 15.8 164.316 16.28 166.14 16.28C168.028 16.28 169.58 16.024 170.796 15.512V1.4H181.932ZM211.339 17.72L221.275 35H208.507L202.075 22.856H198.907V35H187.579V1.4H198.907V13.928H202.363L209.515 1.4H221.323L211.339 17.72ZM255.84 1.4V35H244.848V31.4C242.576 34.312 239.472 35.768 235.536 35.768C231.6 35.768 228.544 34.472 226.368 31.88C224.192 29.288 223.104 25.608 223.104 20.84V1.4H234.432V20.504C234.432 22.552 234.864 24.088 235.728 25.112C236.592 26.104 237.792 26.6 239.328 26.6C240.832 26.6 242.064 26.056 243.024 24.968C244.016 23.848 244.512 22.232 244.512 20.12V1.4H255.84ZM13.36 67.032C14.992 67.032 16.496 66.744 17.872 66.168C19.28 65.56 20.448 64.68 21.376 63.528L22.768 65.112C21.68 66.456 20.32 67.48 18.688 68.184C17.056 68.856 15.264 69.192 13.312 69.192C10.816 69.192 8.576 68.648 6.592 67.56C4.64 66.472 3.104 64.968 1.984 63.048C0.896 61.128 0.352 58.936 0.352 56.472C0.352 54.008 0.864 51.816 1.888 49.896C2.944 47.976 4.4 46.472 6.256 45.384C8.112 44.296 10.208 43.752 12.544 43.752C14.72 43.752 16.672 44.264 18.4 45.288C20.16 46.28 21.552 47.672 22.576 49.464C23.632 51.224 24.208 53.208 24.304 55.416L3.136 59.544C3.744 61.848 4.96 63.672 6.784 65.016C8.608 66.36 10.8 67.032 13.36 67.032ZM12.544 45.864C10.656 45.864 8.96 46.312 7.456 47.208C5.952 48.072 4.784 49.304 3.952 50.904C3.12 52.472 2.704 54.264 2.704 56.28C2.704 56.632 2.736 57.128 2.8 57.768L21.904 54.024C21.68 52.52 21.152 51.144 20.32 49.896C19.488 48.648 18.4 47.672 17.056 46.968C15.712 46.232 14.208 45.864 12.544 45.864ZM41.9526 69.192C39.5206 69.192 37.3446 68.648 35.4246 67.56C33.5046 66.472 32.0006 64.968 30.9126 63.048C29.8246 61.096 29.2806 58.904 29.2806 56.472C29.2806 54.008 29.8246 51.816 30.9126 49.896C32.0006 47.944 33.5046 46.44 35.4246 45.384C37.3446 44.296 39.5206 43.752 41.9526 43.752C43.9686 43.752 45.7926 44.152 47.4246 44.952C49.0886 45.72 50.4326 46.856 51.4566 48.36L49.6806 49.656C48.7846 48.408 47.6646 47.48 46.3206 46.872C45.0086 46.232 43.5526 45.912 41.9526 45.912C40.0006 45.912 38.2406 46.36 36.6726 47.256C35.1366 48.12 33.9206 49.352 33.0246 50.952C32.1606 52.552 31.7286 54.392 31.7286 56.472C31.7286 58.552 32.1606 60.392 33.0246 61.992C33.9206 63.592 35.1366 64.84 36.6726 65.736C38.2406 66.6 40.0006 67.032 41.9526 67.032C43.5526 67.032 45.0086 66.728 46.3206 66.12C47.6646 65.48 48.7846 64.536 49.6806 63.288L51.4566 64.584C50.4326 66.088 49.0886 67.24 47.4246 68.04C45.7926 68.808 43.9686 69.192 41.9526 69.192ZM89.7434 43.752C92.8474 43.752 95.2794 44.664 97.0394 46.488C98.8314 48.312 99.7274 50.936 99.7274 54.36V69H97.3274V54.552C97.3274 51.736 96.6394 49.592 95.2634 48.12C93.8874 46.648 91.9674 45.912 89.5034 45.912C86.6874 45.912 84.4474 46.792 82.7834 48.552C81.1514 50.312 80.3354 52.68 80.3354 55.656V69H77.9354V54.552C77.9354 51.736 77.2474 49.592 75.8714 48.12C74.4954 46.648 72.5754 45.912 70.1114 45.912C67.2954 45.912 65.0554 46.792 63.3914 48.552C61.7594 50.312 60.9434 52.68 60.9434 55.656V69H58.5434V43.944H60.8474V49.32C61.6794 47.56 62.9114 46.2 64.5434 45.24C66.2074 44.248 68.1754 43.752 70.4474 43.752C72.7194 43.752 74.6394 44.264 76.2074 45.288C77.8074 46.312 78.9434 47.816 79.6154 49.8C80.4474 47.944 81.7434 46.472 83.5034 45.384C85.2954 44.296 87.3754 43.752 89.7434 43.752ZM119.054 69.48C115.726 69.48 113.134 68.648 111.278 66.984C109.454 65.288 108.542 62.936 108.542 59.928V43.944H110.942V55.032C111.774 53.88 112.91 52.984 114.35 52.344C115.822 51.672 117.518 51.336 119.438 51.336C122.574 51.336 125.006 52.136 126.734 53.736C128.462 55.304 129.326 57.4 129.326 60.024C129.326 61.848 128.91 63.48 128.078 64.92C127.278 66.36 126.094 67.48 124.526 68.28C122.99 69.08 121.166 69.48 119.054 69.48ZM119.102 67.56C121.502 67.56 123.39 66.856 124.766 65.448C126.174 64.04 126.878 62.248 126.878 60.072C126.878 58.024 126.19 56.376 124.814 55.128C123.438 53.848 121.486 53.208 118.958 53.208C117.102 53.208 115.47 53.608 114.062 54.408C112.686 55.176 111.646 56.248 110.942 57.624V60.024C110.942 62.36 111.662 64.2 113.102 65.544C114.542 66.888 116.542 67.56 119.102 67.56Z" fill="white"/>
</svg>
