<svg width="263" height="77" viewBox="0 0 263 77" fill="none" xmlns="http://www.w3.org/2000/svg">
<path d="M32.3438 40.9062C32.3438 41.1354 32.2812 41.3333 32.1562 41.5C32.0312 41.6458 31.8021 41.7708 31.4688 41.875C31.1562 41.9792 30.7292 42.0521 30.1875 42.0938C29.6458 42.1562 28.9479 42.1875 28.0938 42.1875C27.1979 42.1875 26.4688 42.1562 25.9062 42.0938C25.3646 42.0521 24.9271 41.9792 24.5938 41.875C24.2604 41.75 24.0104 41.5938 23.8438 41.4062C23.6771 41.1979 23.5521 40.9479 23.4688 40.6562L20.2188 31.6562C19.7604 30.3438 19.2812 29.25 18.7812 28.375C18.2812 27.4792 17.7292 26.7604 17.125 26.2188C16.5208 25.6562 15.8333 25.2604 15.0625 25.0312C14.2917 24.8021 13.4271 24.6875 12.4688 24.6875H10.625V40.875C10.625 41.1042 10.5625 41.3021 10.4375 41.4688C10.3125 41.6146 10.0938 41.75 9.78125 41.875C9.46875 41.9792 9.05208 42.0521 8.53125 42.0938C8.01042 42.1562 7.34375 42.1875 6.53125 42.1875C5.73958 42.1875 5.07292 42.1562 4.53125 42.0938C4.01042 42.0521 3.59375 41.9792 3.28125 41.875C2.96875 41.75 2.73958 41.6146 2.59375 41.4688C2.46875 41.3021 2.40625 41.1042 2.40625 40.875V2.65625C2.40625 2.42708 2.46875 2.23958 2.59375 2.09375C2.73958 1.92708 2.96875 1.79167 3.28125 1.6875C3.59375 1.58333 4.01042 1.51042 4.53125 1.46875C5.07292 1.40625 5.73958 1.375 6.53125 1.375C7.34375 1.375 8.01042 1.40625 8.53125 1.46875C9.05208 1.51042 9.46875 1.58333 9.78125 1.6875C10.0938 1.79167 10.3125 1.92708 10.4375 2.09375C10.5625 2.23958 10.625 2.42708 10.625 2.65625V17.8438H12.4688C13.4062 17.8438 14.2292 17.7188 14.9375 17.4688C15.6458 17.2188 16.2812 16.8229 16.8438 16.2812C17.4271 15.7396 17.9479 15.0417 18.4062 14.1875C18.8854 13.3125 19.3438 12.2396 19.7812 10.9688L22.5 2.90625C22.6042 2.61458 22.7292 2.375 22.875 2.1875C23.0208 1.97917 23.25 1.82292 23.5625 1.71875C23.8958 1.59375 24.3229 1.51042 24.8438 1.46875C25.3854 1.40625 26.1042 1.375 27 1.375C27.8125 1.375 28.4792 1.40625 29 1.46875C29.5417 1.51042 29.9583 1.58333 30.25 1.6875C30.5625 1.77083 30.7708 1.89583 30.875 2.0625C30.9792 2.20833 31.0312 2.39583 31.0312 2.625C31.0312 2.89583 30.9792 3.22917 30.875 3.625C30.7917 4.02083 30.6354 4.54167 30.4062 5.1875L27.6875 12.375C27.1875 13.7083 26.6875 14.8438 26.1875 15.7812C25.6875 16.7188 25.1562 17.5208 24.5938 18.1875C24.0521 18.8333 23.4688 19.3646 22.8438 19.7812C22.2396 20.1979 21.5625 20.5417 20.8125 20.8125V20.8438C21.6458 21.1979 22.3958 21.6042 23.0625 22.0625C23.75 22.5 24.3854 23.0625 24.9688 23.75C25.5729 24.4375 26.1458 25.2812 26.6875 26.2812C27.2292 27.2812 27.7812 28.5104 28.3438 29.9688L31.6562 38.3438C31.9896 39.1979 32.1875 39.7917 32.25 40.125C32.3125 40.4375 32.3438 40.6979 32.3438 40.9062ZM73.2188 21.3125C73.2188 24.6667 72.8021 27.6667 71.9688 30.3125C71.1354 32.9583 69.8958 35.2083 68.25 37.0625C66.6042 38.8958 64.5625 40.3021 62.125 41.2812C59.7083 42.2396 56.9062 42.7188 53.7188 42.7188C50.5729 42.7188 47.8229 42.3125 45.4688 41.5C43.1354 40.6667 41.1875 39.4062 39.625 37.7188C38.0625 36.0312 36.8854 33.8854 36.0938 31.2812C35.3229 28.6771 34.9375 25.5938 34.9375 22.0312C34.9375 18.7604 35.3542 15.8229 36.1875 13.2188C37.0208 10.5938 38.2604 8.36458 39.9062 6.53125C41.5521 4.69792 43.5833 3.29167 46 2.3125C48.4375 1.33333 51.2604 0.84375 54.4688 0.84375C57.5312 0.84375 60.2292 1.25 62.5625 2.0625C64.9167 2.875 66.875 4.125 68.4375 5.8125C70.0208 7.5 71.2083 9.63542 72 12.2188C72.8125 14.7812 73.2188 17.8125 73.2188 21.3125ZM64.5938 21.75C64.5938 19.625 64.4271 17.6979 64.0938 15.9688C63.7604 14.2188 63.1875 12.7292 62.375 11.5C61.5833 10.25 60.5208 9.29167 59.1875 8.625C57.8542 7.9375 56.1875 7.59375 54.1875 7.59375C52.1667 7.59375 50.4792 7.97917 49.125 8.75C47.7708 9.5 46.6771 10.5104 45.8438 11.7812C45.0104 13.0521 44.4167 14.5417 44.0625 16.25C43.7292 17.9375 43.5625 19.7292 43.5625 21.625C43.5625 23.8333 43.7292 25.8229 44.0625 27.5938C44.3958 29.3438 44.9583 30.8438 45.75 32.0938C46.5417 33.3438 47.6042 34.3021 48.9375 34.9688C50.2708 35.6146 51.9479 35.9375 53.9688 35.9375C55.9896 35.9375 57.6771 35.5625 59.0312 34.8125C60.3854 34.0625 61.4792 33.0417 62.3125 31.75C63.1458 30.4583 63.7292 28.9583 64.0625 27.25C64.4167 25.5208 64.5938 23.6875 64.5938 21.75ZM107.844 13.8438C107.844 16.1146 107.49 18.125 106.781 19.875C106.073 21.625 105.042 23.1042 103.688 24.3125C102.333 25.5 100.667 26.4062 98.6875 27.0312C96.7292 27.6562 94.4167 27.9688 91.75 27.9688H88.375V40.875C88.375 41.0833 88.3021 41.2708 88.1562 41.4375C88.0312 41.6042 87.8125 41.7396 87.5 41.8438C87.1875 41.9479 86.7708 42.0312 86.25 42.0938C85.7292 42.1562 85.0625 42.1875 84.25 42.1875C83.4583 42.1875 82.7917 42.1562 82.25 42.0938C81.7292 42.0312 81.3125 41.9479 81 41.8438C80.6875 41.7396 80.4688 41.6042 80.3438 41.4375C80.2188 41.2708 80.1562 41.0833 80.1562 40.875V4.5C80.1562 3.52083 80.4062 2.79167 80.9062 2.3125C81.4271 1.8125 82.1042 1.5625 82.9375 1.5625H92.4688C93.4271 1.5625 94.3333 1.60417 95.1875 1.6875C96.0625 1.75 97.1042 1.90625 98.3125 2.15625C99.5208 2.38542 100.74 2.82292 101.969 3.46875C103.219 4.11458 104.281 4.9375 105.156 5.9375C106.031 6.91667 106.698 8.07292 107.156 9.40625C107.615 10.7188 107.844 12.1979 107.844 13.8438ZM99.25 14.4375C99.25 13.0208 99 11.8542 98.5 10.9375C98 10.0208 97.3854 9.34375 96.6562 8.90625C95.9271 8.46875 95.1562 8.19792 94.3438 8.09375C93.5521 7.96875 92.7292 7.90625 91.875 7.90625H88.375V21.625H92.0625C93.375 21.625 94.4688 21.4479 95.3438 21.0938C96.2396 20.7396 96.9688 20.25 97.5312 19.625C98.0938 18.9792 98.5208 18.2188 98.8125 17.3438C99.1042 16.4479 99.25 15.4792 99.25 14.4375ZM150.594 21.3125C150.594 24.6667 150.177 27.6667 149.344 30.3125C148.51 32.9583 147.271 35.2083 145.625 37.0625C143.979 38.8958 141.938 40.3021 139.5 41.2812C137.083 42.2396 134.281 42.7188 131.094 42.7188C127.948 42.7188 125.198 42.3125 122.844 41.5C120.51 40.6667 118.562 39.4062 117 37.7188C115.438 36.0312 114.26 33.8854 113.469 31.2812C112.698 28.6771 112.312 25.5938 112.312 22.0312C112.312 18.7604 112.729 15.8229 113.562 13.2188C114.396 10.5938 115.635 8.36458 117.281 6.53125C118.927 4.69792 120.958 3.29167 123.375 2.3125C125.812 1.33333 128.635 0.84375 131.844 0.84375C134.906 0.84375 137.604 1.25 139.938 2.0625C142.292 2.875 144.25 4.125 145.812 5.8125C147.396 7.5 148.583 9.63542 149.375 12.2188C150.188 14.7812 150.594 17.8125 150.594 21.3125ZM141.969 21.75C141.969 19.625 141.802 17.6979 141.469 15.9688C141.135 14.2188 140.562 12.7292 139.75 11.5C138.958 10.25 137.896 9.29167 136.562 8.625C135.229 7.9375 133.562 7.59375 131.562 7.59375C129.542 7.59375 127.854 7.97917 126.5 8.75C125.146 9.5 124.052 10.5104 123.219 11.7812C122.385 13.0521 121.792 14.5417 121.438 16.25C121.104 17.9375 120.938 19.7292 120.938 21.625C120.938 23.8333 121.104 25.8229 121.438 27.5938C121.771 29.3438 122.333 30.8438 123.125 32.0938C123.917 33.3438 124.979 34.3021 126.312 34.9688C127.646 35.6146 129.323 35.9375 131.344 35.9375C133.365 35.9375 135.052 35.5625 136.406 34.8125C137.76 34.0625 138.854 33.0417 139.688 31.75C140.521 30.4583 141.104 28.9583 141.438 27.25C141.792 25.5208 141.969 23.6875 141.969 21.75ZM185.094 40.9062C185.094 41.1146 185.021 41.3021 184.875 41.4688C184.75 41.6146 184.531 41.7396 184.219 41.8438C183.927 41.9479 183.521 42.0312 183 42.0938C182.5 42.1562 181.854 42.1875 181.062 42.1875C180.292 42.1875 179.635 42.1562 179.094 42.0938C178.573 42.0312 178.146 41.9479 177.812 41.8438C177.479 41.7396 177.24 41.6146 177.094 41.4688C176.948 41.3021 176.875 41.1146 176.875 40.9062V27.0938C175.771 27.1979 174.688 27.2917 173.625 27.375C172.562 27.4375 171.49 27.4688 170.406 27.4688C168.177 27.4688 166.146 27.2708 164.312 26.875C162.5 26.4792 160.927 25.7917 159.594 24.8125C158.281 23.8125 157.26 22.4583 156.531 20.75C155.823 19.0208 155.469 16.8438 155.469 14.2188V2.65625C155.469 2.44792 155.531 2.27083 155.656 2.125C155.781 1.95833 155.99 1.82292 156.281 1.71875C156.594 1.61458 157 1.53125 157.5 1.46875C158.021 1.40625 158.667 1.375 159.438 1.375C160.229 1.375 160.885 1.40625 161.406 1.46875C161.948 1.53125 162.385 1.61458 162.719 1.71875C163.052 1.82292 163.292 1.95833 163.438 2.125C163.583 2.27083 163.656 2.44792 163.656 2.65625V13.4062C163.656 14.6562 163.781 15.7396 164.031 16.6562C164.302 17.5729 164.74 18.3333 165.344 18.9375C165.948 19.5417 166.74 20 167.719 20.3125C168.719 20.625 169.958 20.7812 171.438 20.7812C172.375 20.7812 173.292 20.75 174.188 20.6875C175.083 20.6042 175.979 20.5104 176.875 20.4062V2.65625C176.875 2.44792 176.948 2.27083 177.094 2.125C177.24 1.95833 177.479 1.82292 177.812 1.71875C178.146 1.61458 178.573 1.53125 179.094 1.46875C179.635 1.40625 180.292 1.375 181.062 1.375C181.854 1.375 182.5 1.40625 183 1.46875C183.521 1.53125 183.927 1.61458 184.219 1.71875C184.531 1.82292 184.75 1.95833 184.875 2.125C185.021 2.27083 185.094 2.44792 185.094 2.65625V40.9062ZM223.844 40.9062C223.844 41.1354 223.781 41.3333 223.656 41.5C223.531 41.6458 223.302 41.7708 222.969 41.875C222.656 41.9792 222.229 42.0521 221.688 42.0938C221.146 42.1562 220.448 42.1875 219.594 42.1875C218.698 42.1875 217.969 42.1562 217.406 42.0938C216.865 42.0521 216.427 41.9792 216.094 41.875C215.76 41.75 215.51 41.5938 215.344 41.4062C215.177 41.1979 215.052 40.9479 214.969 40.6562L211.719 31.6562C211.26 30.3438 210.781 29.25 210.281 28.375C209.781 27.4792 209.229 26.7604 208.625 26.2188C208.021 25.6562 207.333 25.2604 206.562 25.0312C205.792 24.8021 204.927 24.6875 203.969 24.6875H202.125V40.875C202.125 41.1042 202.062 41.3021 201.938 41.4688C201.812 41.6146 201.594 41.75 201.281 41.875C200.969 41.9792 200.552 42.0521 200.031 42.0938C199.51 42.1562 198.844 42.1875 198.031 42.1875C197.24 42.1875 196.573 42.1562 196.031 42.0938C195.51 42.0521 195.094 41.9792 194.781 41.875C194.469 41.75 194.24 41.6146 194.094 41.4688C193.969 41.3021 193.906 41.1042 193.906 40.875V2.65625C193.906 2.42708 193.969 2.23958 194.094 2.09375C194.24 1.92708 194.469 1.79167 194.781 1.6875C195.094 1.58333 195.51 1.51042 196.031 1.46875C196.573 1.40625 197.24 1.375 198.031 1.375C198.844 1.375 199.51 1.40625 200.031 1.46875C200.552 1.51042 200.969 1.58333 201.281 1.6875C201.594 1.79167 201.812 1.92708 201.938 2.09375C202.062 2.23958 202.125 2.42708 202.125 2.65625V17.8438H203.969C204.906 17.8438 205.729 17.7188 206.438 17.4688C207.146 17.2188 207.781 16.8229 208.344 16.2812C208.927 15.7396 209.448 15.0417 209.906 14.1875C210.385 13.3125 210.844 12.2396 211.281 10.9688L214 2.90625C214.104 2.61458 214.229 2.375 214.375 2.1875C214.521 1.97917 214.75 1.82292 215.062 1.71875C215.396 1.59375 215.823 1.51042 216.344 1.46875C216.885 1.40625 217.604 1.375 218.5 1.375C219.312 1.375 219.979 1.40625 220.5 1.46875C221.042 1.51042 221.458 1.58333 221.75 1.6875C222.062 1.77083 222.271 1.89583 222.375 2.0625C222.479 2.20833 222.531 2.39583 222.531 2.625C222.531 2.89583 222.479 3.22917 222.375 3.625C222.292 4.02083 222.135 4.54167 221.906 5.1875L219.188 12.375C218.688 13.7083 218.188 14.8438 217.688 15.7812C217.188 16.7188 216.656 17.5208 216.094 18.1875C215.552 18.8333 214.969 19.3646 214.344 19.7812C213.74 20.1979 213.062 20.5417 212.312 20.8125V20.8438C213.146 21.1979 213.896 21.6042 214.562 22.0625C215.25 22.5 215.885 23.0625 216.469 23.75C217.073 24.4375 217.646 25.2812 218.188 26.2812C218.729 27.2812 219.281 28.5104 219.844 29.9688L223.156 38.3438C223.49 39.1979 223.688 39.7917 223.75 40.125C223.812 40.4375 223.844 40.6979 223.844 40.9062ZM262.875 40.9375C262.875 41.1458 262.802 41.3333 262.656 41.5C262.531 41.6458 262.312 41.7708 262 41.875C261.688 41.9792 261.26 42.0521 260.719 42.0938C260.198 42.1562 259.542 42.1875 258.75 42.1875C257.958 42.1875 257.292 42.1562 256.75 42.0938C256.229 42.0521 255.812 41.9792 255.5 41.875C255.208 41.7708 255 41.6458 254.875 41.5C254.75 41.3333 254.688 41.1458 254.688 40.9375V19.625C254.688 18.8125 254.698 18.0208 254.719 17.25C254.74 16.4583 254.771 15.7604 254.812 15.1562H254.75C254.583 15.4479 254.385 15.7917 254.156 16.1875C253.927 16.5625 253.677 16.9688 253.406 17.4062C253.156 17.8229 252.885 18.2604 252.594 18.7188C252.302 19.1562 252.01 19.5833 251.719 20L237.656 40.9688C237.49 41.1979 237.312 41.3958 237.125 41.5625C236.958 41.7292 236.729 41.8646 236.438 41.9688C236.167 42.0521 235.823 42.1042 235.406 42.125C235.01 42.1667 234.49 42.1875 233.844 42.1875C233.031 42.1875 232.375 42.1562 231.875 42.0938C231.375 42.0521 230.979 41.9792 230.688 41.875C230.417 41.7708 230.229 41.6354 230.125 41.4688C230.021 41.3021 229.969 41.1042 229.969 40.875V2.625C229.969 2.41667 230.031 2.23958 230.156 2.09375C230.302 1.92708 230.531 1.79167 230.844 1.6875C231.177 1.58333 231.604 1.51042 232.125 1.46875C232.646 1.40625 233.302 1.375 234.094 1.375C234.906 1.375 235.573 1.40625 236.094 1.46875C236.615 1.51042 237.031 1.58333 237.344 1.6875C237.656 1.79167 237.875 1.92708 238 2.09375C238.125 2.23958 238.188 2.41667 238.188 2.625V24.0625C238.188 24.7292 238.177 25.4375 238.156 26.1875C238.135 26.9375 238.104 27.6667 238.062 28.375H238.125C238.479 27.75 238.927 27 239.469 26.125C240.01 25.25 240.573 24.3958 241.156 23.5625L255.219 2.59375C255.365 2.38542 255.521 2.20833 255.688 2.0625C255.854 1.89583 256.073 1.76042 256.344 1.65625C256.635 1.55208 256.99 1.47917 257.406 1.4375C257.823 1.39583 258.354 1.375 259 1.375C259.792 1.375 260.427 1.40625 260.906 1.46875C261.406 1.51042 261.802 1.58333 262.094 1.6875C262.385 1.79167 262.583 1.92708 262.688 2.09375C262.812 2.23958 262.875 2.42708 262.875 2.65625V40.9375ZM19.1172 58.4922C19.1172 59.5391 18.8672 60.4844 18.3672 61.3281C17.8828 62.1562 17.1094 62.8672 16.0469 63.4609C14.9844 64.0547 13.625 64.5156 11.9688 64.8438C10.3125 65.1562 8.32031 65.3125 5.99219 65.3125H3.29688C3.1875 65.9062 3.10938 66.4844 3.0625 67.0469C3.01562 67.6094 2.99219 68.1328 2.99219 68.6172C2.99219 70.3359 3.40625 71.6641 4.23438 72.6016C5.07812 73.5391 6.44531 74.0078 8.33594 74.0078C9.32031 74.0078 10.2031 73.9375 10.9844 73.7969C11.7656 73.6406 12.4375 73.4766 13 73.3047C13.5781 73.1328 14.0391 72.9766 14.3828 72.8359C14.7422 72.6797 14.9844 72.6016 15.1094 72.6016C15.2344 72.6016 15.3203 72.6562 15.3672 72.7656C15.4297 72.8594 15.4609 72.9844 15.4609 73.1406C15.4609 73.2344 15.4453 73.3594 15.4141 73.5156C15.3984 73.6562 15.3672 73.8125 15.3203 73.9844C15.2734 74.1406 15.2109 74.3047 15.1328 74.4766C15.0547 74.6328 14.9609 74.7656 14.8516 74.875C14.6641 75.0625 14.3359 75.25 13.8672 75.4375C13.4141 75.6094 12.875 75.7656 12.25 75.9062C11.625 76.0469 10.9453 76.1641 10.2109 76.2578C9.47656 76.3516 8.75 76.3984 8.03125 76.3984C6.6875 76.3984 5.51562 76.2422 4.51562 75.9297C3.51562 75.6016 2.67969 75.1172 2.00781 74.4766C1.35156 73.8359 0.859375 73.0391 0.53125 72.0859C0.203125 71.1172 0.0390625 69.9922 0.0390625 68.7109C0.0390625 67.7109 0.132812 66.6406 0.320312 65.5C0.523438 64.3438 0.828125 63.2031 1.23438 62.0781C1.65625 60.9375 2.19531 59.8516 2.85156 58.8203C3.50781 57.7734 4.28906 56.8594 5.19531 56.0781C6.10156 55.2812 7.14844 54.6484 8.33594 54.1797C9.52344 53.6953 10.8594 53.4531 12.3438 53.4531C13.5781 53.4531 14.625 53.6172 15.4844 53.9453C16.3438 54.2578 17.0391 54.6641 17.5703 55.1641C18.1172 55.6484 18.5078 56.1875 18.7422 56.7812C18.9922 57.375 19.1172 57.9453 19.1172 58.4922ZM16.1641 58.7969C16.1641 57.9062 15.8125 57.1953 15.1094 56.6641C14.4062 56.1172 13.4141 55.8438 12.1328 55.8438C11.0078 55.8438 10 56.0391 9.10938 56.4297C8.23438 56.8203 7.46094 57.3438 6.78906 58C6.11719 58.6562 5.53906 59.4219 5.05469 60.2969C4.58594 61.1562 4.20312 62.0625 3.90625 63.0156H6.50781C8.38281 63.0156 9.9375 62.9062 11.1719 62.6875C12.4062 62.4531 13.3906 62.1406 14.125 61.75C14.875 61.3594 15.3984 60.9141 15.6953 60.4141C16.0078 59.8984 16.1641 59.3594 16.1641 58.7969ZM40.4922 56.4531C40.4922 56.6719 40.4688 56.8906 40.4219 57.1094C40.3906 57.3281 40.3359 57.5312 40.2578 57.7188C40.1797 57.8906 40.0781 58.0312 39.9531 58.1406C39.8281 58.25 39.6875 58.3047 39.5312 58.3047C39.3281 58.3047 39.1016 58.1797 38.8516 57.9297C38.6172 57.6797 38.2891 57.4062 37.8672 57.1094C37.4609 56.7969 36.9375 56.5156 36.2969 56.2656C35.6562 56.0156 34.8359 55.8906 33.8359 55.8906C32.7422 55.8906 31.7734 56.1172 30.9297 56.5703C30.0859 57.0078 29.3516 57.5859 28.7266 58.3047C28.1172 59.0078 27.6016 59.8125 27.1797 60.7188C26.7734 61.625 26.4453 62.5469 26.1953 63.4844C25.9453 64.4062 25.7656 65.3047 25.6562 66.1797C25.5469 67.0391 25.4922 67.7891 25.4922 68.4297C25.4922 70.2422 25.8828 71.6094 26.6641 72.5312C27.4453 73.4531 28.5938 73.9141 30.1094 73.9141C31.1875 73.9141 32.1172 73.7812 32.8984 73.5156C33.6797 73.2344 34.3359 72.9297 34.8672 72.6016C35.4141 72.2578 35.8594 71.9531 36.2031 71.6875C36.5469 71.4062 36.8359 71.2656 37.0703 71.2656C37.1797 71.2656 37.2656 71.3203 37.3281 71.4297C37.4062 71.5234 37.4453 71.6719 37.4453 71.875C37.4453 72.0156 37.4297 72.1797 37.3984 72.3672C37.3828 72.5547 37.3516 72.75 37.3047 72.9531C37.2578 73.1406 37.1953 73.3203 37.1172 73.4922C37.0391 73.6641 36.9062 73.8438 36.7188 74.0312C36.5312 74.2188 36.1953 74.4609 35.7109 74.7578C35.2422 75.0547 34.6953 75.3281 34.0703 75.5781C33.4453 75.8125 32.7656 76.0078 32.0312 76.1641C31.2969 76.3203 30.5391 76.3984 29.7578 76.3984C27.3359 76.3984 25.5234 75.7812 24.3203 74.5469C23.1328 73.2969 22.5391 71.4375 22.5391 68.9688C22.5391 68.0156 22.6172 66.9766 22.7734 65.8516C22.9453 64.7109 23.2188 63.5703 23.5938 62.4297C23.9688 61.2734 24.4531 60.1562 25.0469 59.0781C25.6406 58 26.3672 57.0469 27.2266 56.2188C28.0859 55.375 29.0859 54.7031 30.2266 54.2031C31.3672 53.7031 32.6719 53.4531 34.1406 53.4531C34.75 53.4531 35.3438 53.5078 35.9219 53.6172C36.5 53.7109 37.0391 53.8516 37.5391 54.0391C38.0547 54.2109 38.5234 54.4375 38.9453 54.7188C39.3828 54.9844 39.7188 55.2344 39.9531 55.4688C40.2031 55.6875 40.3516 55.8672 40.3984 56.0078C40.4609 56.1328 40.4922 56.2812 40.4922 56.4531ZM72.3672 75.5312C72.3516 75.625 72.3125 75.7109 72.25 75.7891C72.2031 75.8672 72.1172 75.9297 71.9922 75.9766C71.8828 76.0234 71.7344 76.0625 71.5469 76.0938C71.3594 76.125 71.1328 76.1406 70.8672 76.1406C70.5859 76.1406 70.3594 76.125 70.1875 76.0938C70.0156 76.0625 69.8828 76.0234 69.7891 75.9766C69.6953 75.9297 69.6328 75.8672 69.6016 75.7891C69.5703 75.7109 69.5703 75.625 69.6016 75.5312L72.25 62.2188C72.3281 61.7188 72.3984 61.25 72.4609 60.8125C72.5234 60.375 72.5547 59.9453 72.5547 59.5234C72.5547 58.3672 72.3281 57.4609 71.875 56.8047C71.4375 56.1328 70.6797 55.7969 69.6016 55.7969C68.7109 55.7969 67.8047 56.0547 66.8828 56.5703C65.9609 57.0859 65.0859 57.8047 64.2578 58.7266C63.4453 59.6328 62.7188 60.7188 62.0781 61.9844C61.4531 63.25 60.9922 64.6328 60.6953 66.1328L58.8203 75.5312C58.7891 75.625 58.7422 75.7109 58.6797 75.7891C58.6328 75.8672 58.5469 75.9297 58.4219 75.9766C58.3125 76.0234 58.1641 76.0625 57.9766 76.0938C57.7891 76.125 57.5625 76.1406 57.2969 76.1406C57.0312 76.1406 56.8125 76.125 56.6406 76.0938C56.4688 76.0625 56.3359 76.0234 56.2422 75.9766C56.1484 75.9297 56.0859 75.8672 56.0547 75.7891C56.0234 75.7109 56.0156 75.625 56.0312 75.5312L58.6797 62.2188C58.8047 61.7031 58.8828 61.2031 58.9141 60.7188C58.9609 60.2188 58.9844 59.7656 58.9844 59.3594C58.9844 58.2656 58.7578 57.3984 58.3047 56.7578C57.8516 56.1172 57.0938 55.7969 56.0312 55.7969C55.1406 55.7969 54.2344 56.0547 53.3125 56.5703C52.3906 57.0859 51.5156 57.8047 50.6875 58.7266C49.875 59.6328 49.1484 60.7188 48.5078 61.9844C47.8828 63.25 47.4219 64.6328 47.125 66.1328L45.2734 75.5312C45.2422 75.625 45.1953 75.7109 45.1328 75.7891C45.0859 75.8672 45 75.9297 44.875 75.9766C44.7656 76.0234 44.6172 76.0625 44.4297 76.0938C44.2422 76.125 44.0156 76.1406 43.75 76.1406C43.4688 76.1406 43.2422 76.125 43.0703 76.0938C42.8984 76.0625 42.7656 76.0234 42.6719 75.9766C42.5781 75.9297 42.5156 75.8672 42.4844 75.7891C42.4531 75.7109 42.4531 75.625 42.4844 75.5312L46.75 54.3203C46.7656 54.2266 46.7969 54.1406 46.8438 54.0625C46.9062 53.9844 46.9922 53.9219 47.1016 53.875C47.2109 53.8125 47.3516 53.7734 47.5234 53.7578C47.6953 53.7266 47.8984 53.7109 48.1328 53.7109C48.3672 53.7109 48.5625 53.7266 48.7188 53.7578C48.875 53.7734 48.9922 53.8125 49.0703 53.875C49.1641 53.9219 49.2188 53.9844 49.2344 54.0625C49.2656 54.1406 49.2734 54.2266 49.2578 54.3203L48.3906 58.6562C48.5938 58.1406 48.9609 57.5781 49.4922 56.9688C50.0234 56.3594 50.6484 55.7969 51.3672 55.2812C52.1016 54.75 52.9062 54.3125 53.7812 53.9688C54.6562 53.625 55.5391 53.4531 56.4297 53.4531C57.3984 53.4531 58.2188 53.5859 58.8906 53.8516C59.5625 54.1016 60.1094 54.4609 60.5312 54.9297C60.9688 55.3828 61.2812 55.9297 61.4688 56.5703C61.6719 57.1953 61.7891 57.8906 61.8203 58.6562C62.1016 58.125 62.5156 57.5547 63.0625 56.9453C63.6094 56.3359 64.2422 55.7734 64.9609 55.2578C65.6953 54.7422 66.4922 54.3125 67.3516 53.9688C68.2109 53.625 69.0859 53.4531 69.9766 53.4531C70.9922 53.4531 71.8438 53.6016 72.5312 53.8984C73.2188 54.1797 73.7734 54.5703 74.1953 55.0703C74.6172 55.5703 74.9141 56.1562 75.0859 56.8281C75.2734 57.5 75.3672 58.2266 75.3672 59.0078C75.3672 59.5547 75.3359 60.0938 75.2734 60.625C75.2266 61.1406 75.1484 61.6719 75.0391 62.2188L72.3672 75.5312ZM97.5391 67.3984C97.5391 68.8984 97.2656 70.2109 96.7188 71.3359C96.1875 72.4453 95.4766 73.375 94.5859 74.125C93.6953 74.875 92.6719 75.4375 91.5156 75.8125C90.3594 76.1719 89.1562 76.3516 87.9062 76.3516C86.5469 76.3516 85.3984 76.1562 84.4609 75.7656C83.5234 75.3594 82.7812 74.8125 82.2344 74.125C81.7031 73.4219 81.3594 72.5938 81.2031 71.6406C81.0469 70.6875 81.0781 69.6484 81.2969 68.5234L84.1094 54.3203C84.125 54.2266 84.1641 54.1406 84.2266 54.0625C84.2891 53.9844 84.375 53.9219 84.4844 53.875C84.6094 53.8125 84.7656 53.7734 84.9531 53.7578C85.1406 53.7266 85.3672 53.7109 85.6328 53.7109C85.9141 53.7109 86.1406 53.7266 86.3125 53.7578C86.4844 53.7734 86.6172 53.8125 86.7109 53.875C86.8047 53.9219 86.8594 53.9844 86.875 54.0625C86.9062 54.1406 86.9141 54.2266 86.8984 54.3203L85.3281 62.2188C85.9844 62 86.7344 61.8359 87.5781 61.7266C88.4219 61.6172 89.2656 61.5625 90.1094 61.5625C91.25 61.5625 92.2734 61.7031 93.1797 61.9844C94.1016 62.2656 94.8828 62.6641 95.5234 63.1797C96.1797 63.6953 96.6797 64.3125 97.0234 65.0312C97.3672 65.75 97.5391 66.5391 97.5391 67.3984ZM94.6797 67.75C94.6797 67.1562 94.5625 66.625 94.3281 66.1562C94.0938 65.6875 93.7656 65.2891 93.3438 64.9609C92.9219 64.6328 92.4062 64.3828 91.7969 64.2109C91.2031 64.0391 90.5391 63.9531 89.8047 63.9531C88.8828 63.9531 87.9922 64.0234 87.1328 64.1641C86.2891 64.3047 85.5156 64.5 84.8125 64.75L84.0859 68.4062C83.7109 70.2656 83.8984 71.6562 84.6484 72.5781C85.4141 73.5 86.5703 73.9609 88.1172 73.9609C89.0391 73.9609 89.8984 73.8203 90.6953 73.5391C91.5078 73.2422 92.2031 72.8281 92.7812 72.2969C93.375 71.75 93.8359 71.0938 94.1641 70.3281C94.5078 69.5625 94.6797 68.7031 94.6797 67.75Z" fill="white"/>
</svg>
